HIERARCHY
ROOT Hips
{
  OFFSET -10.0563 7.73376 -472.55
  CHANNELS 6 Xposition Yposition Zposition Zrotation Xrotation Yrotation
  JOINT Spine
  {
    OFFSET 0 0 0
    CHANNELS 3 Zrotation Xrotation Yrotation
    JOINT Spine1
    {
      OFFSET 19 0 0
      CHANNELS 3 Zrotation Xrotation Yrotation
      JOINT Neck
      {
        OFFSET 22.5 0.6 0
        CHANNELS 3 Zrotation Xrotation Yrotation
        JOINT Head
        {
          OFFSET 14 0.0308777 0
          CHANNELS 3 Zrotation Xrotation Yrotation
          End Site
          {
            OFFSET 17 0 0
          }
        }
      }
      JOINT LeftShoulder
      {
        OFFSET 19.8 3.7 4.3
        CHANNELS 3 Zrotation Xrotation Yrotation
        JOINT LeftArm
        {
          OFFSET 8 0 0
          CHANNELS 3 Zrotation Xrotation Yrotation
          JOINT LeftForeArm
          {
            OFFSET 15.2 0 0
            CHANNELS 3 Zrotation Xrotation Yrotation
            JOINT LeftHand
            {
              OFFSET 17.8 0 0
              CHANNELS 3 Zrotation Xrotation Yrotation
              End Site
              {
                OFFSET 7.2 0 0
              }
            }
          }
        }
      }
      JOINT RightShoulder
      {
        OFFSET 19.8 3.7 -4.3
        CHANNELS 3 Zrotation Xrotation Yrotation
        JOINT RightArm
        {
          OFFSET 8 0 0.151654
          CHANNELS 3 Zrotation Xrotation Yrotation
          JOINT RightForeArm
          {
            OFFSET 15.2 0 0
            CHANNELS 3 Zrotation Xrotation Yrotation
            JOINT RightHand
            {
              OFFSET 17.8 0 0
              CHANNELS 3 Zrotation Xrotation Yrotation
              End Site
              {
                OFFSET 7.2 0 0
              }
            }
          }
        }
      }
    }
  }
  JOINT LeftUpLeg
  {
    OFFSET 5.98425 -7.666 4.78879
    CHANNELS 3 Zrotation Xrotation Yrotation
    JOINT LeftLeg
    {
      OFFSET 16 0 0
      CHANNELS 3 Zrotation Xrotation Yrotation
      JOINT LeftFoot
      {
        OFFSET 18 0 0
        CHANNELS 3 Zrotation Xrotation Yrotation
        End Site
        {
          OFFSET 0 -10.8 0
        }
      }
    }
  }
  JOINT RightUpLeg
  {
    OFFSET 5.98425 -7.66598 -4.78879
    CHANNELS 3 Zrotation Xrotation Yrotation
    JOINT RightLeg
    {
      OFFSET 16 0 0
      CHANNELS 3 Zrotation Xrotation Yrotation
      JOINT RightFoot
      {
        OFFSET 18 0 0
        CHANNELS 3 Zrotation Xrotation Yrotation
        End Site
        {
          OFFSET 0 -10.8 0
        }
      }
    }
  }
  JOINT Tail
  {
    OFFSET 6.83696 -0.722574 0
    CHANNELS 3 Zrotation Xrotation Yrotation
    JOINT Tail1
    {
      OFFSET 12 0 0
      CHANNELS 3 Zrotation Xrotation Yrotation
      End Site
      {
        OFFSET 12 0 0
      }
    }
  }
}
MOTION
Frames:	14
Frame Time:	0.0166667
72.2191 14.2809 87.0888 -39.6032 -26.8091 86.9036 -137.549 11.7653 -0.0377461 -30.8266 4.87811 14.8747 -3.91031 0.411261 19.0924 -111.716 75.8149 144.167 -112.511 -41.2757 -135.002 99.9631 23.6436 -124.231 -54.2412 -57.1222 59.9382 8.74297 0.636518 -30.5155 76.0289 -27.9562 42.1526 46.5135 -13.6289 -42.8491 -105.379 30.1279 -22.2602 8.66032 1.02452 10.8042 -170.802 -32.4463 -33.188 136.426 41.207 -4.34987 -10.8482 -2.64187 -4.2393 -125.75 -28.042 9.42263 136.765 9.19439 -2.98745 -11.2659 -3.88761 -9.52254 -3.07537 -6.25902 -5.30947 13.5385 -30.8001 -2.19311 
72.2162 14.3052 87.0751 -39.4807 -26.8589 86.9604 -137.402 11.7372 -0.00834849 -30.9408 4.83275 14.835 -3.91752 0.406359 19.1534 -111.765 75.9311 144.179 -112.542 -41.3111 -135.016 99.9635 23.6309 -124.229 -54.6651 -56.9213 59.5162 8.68129 0.625558 -30.2512 76.0416 -27.947 42.1761 46.4442 -13.5906 -42.8729 -105.362 30.1227 -22.2574 8.68699 1.02656 10.8219 -170.656 -33.1435 -33.2049 136.241 40.2697 -4.32516 -11.1226 -2.66035 -4.34629 -125.661 -28.0575 9.53337 136.713 9.24047 -2.98784 -11.204 -3.882 -9.46555 -3.02762 -6.15261 -5.3032 13.5194 -30.7979 -2.19384 
72.2164 14.3091 87.0676 -39.4743 -26.8743 86.978 -137.286 11.7694 -0.0753694 -31.0965 4.81906 14.9504 -3.87248 0.365422 19.0452 -111.575 75.8878 143.898 -112.498 -41.2429 -135.024 99.9705 23.7256 -124.161 -54.4808 -56.9273 59.6232 8.69229 0.63225 -30.3462 76.1329 -27.8809 42.3459 46.1328 -13.6518 -43.1353 -105.301 30.0244 -22.1844 8.79467 1.02839 10.8894 -170.662 -33.2224 -33.2327 136.344 40.0219 -4.32291 -10.681 -2.66537 -4.37338 -125.64 -28.0766 9.48729 136.773 9.33891 -2.98205 -11.0774 -3.88308 -9.46161 -3.01225 -6.15505 -5.30608 13.4947 -30.8065 -2.16341 
72.2145 14.305 87.0663 -39.4708 -26.8502 86.9982 -137.284 11.8109 -0.126397 -31.1985 4.80797 15.0825 -3.80105 0.309847 19.0075 -111.446 76.0338 143.628 -112.462 -41.1679 -135.066 99.9649 23.7684 -124.125 -54.4505 -56.9006 59.6071 8.64224 0.645732 -30.3657 76.0921 -27.9166 42.2858 46.2262 -13.5857 -43.0482 -105.273 30.0365 -22.2267 8.84674 1.04636 10.8721 -170.688 -33.1957 -33.1512 136.32 39.9945 -4.31309 -10.7358 -2.66956 -4.34146 -125.634 -28.1074 9.51192 136.798 9.2539 -2.98603 -11.138 -3.88151 -9.48462 -3.03048 -6.16733 -5.31631 13.5055 -30.8002 -2.14534 
72.2098 14.302 87.0618 -39.4749 -26.8718 86.9987 -137.258 11.8314 -0.146442 -31.2368 4.81834 15.1139 -3.88809 0.327112 19.0454 -111.627 76.3077 143.856 -112.468 -41.1623 -135.089 99.9349 23.7621 -124.126 -54.4592 -56.8728 59.5844 8.63375 0.644137 -30.309 76.1343 -27.8875 42.3687 46.173 -13.6549 -43.0805 -105.268 30.0166 -22.1944 8.87228 1.04376 10.826 -170.703 -33.1955 -33.1472 136.346 39.9584 -4.32583 -10.7411 -2.6732 -4.33369 -125.589 -28.1538 9.52102 136.746 9.10187 -2.99773 -11.2184 -3.88105 -9.48817 -2.99275 -6.1815 -5.33127 13.5098 -30.7693 -2.18628 
72.2082 14.2944 87.0729 -39.5087 -26.863 86.987 -137.299 11.8534 -0.118674 -31.1784 4.86102 15.0651 -4.01019 0.385077 19.0991 -111.965 76.4675 144.196 -112.48 -41.1645 -135.113 99.9459 23.7315 -124.226 -54.5346 -56.9014 59.5814 8.65675 0.637532 -30.2748 76.1618 -27.8959 42.4951 46.15 -13.7737 -43.132 -105.352 29.7881 -22.1293 8.72731 1.04861 10.6381 -170.768 -33.1969 -33.2325 136.429 39.9914 -4.3669 -10.7307 -2.67631 -4.3553 -125.572 -28.1418 9.50972 136.786 9.19138 -2.99108 -11.0704 -3.88453 -9.47988 -2.97614 -6.24797 -5.32659 13.4597 -30.728 -2.24338 
72.2198 14.2937 87.0914 -39.5218 -26.8338 86.9967 -137.36 11.8491 -0.0240964 -31.1037 4.87211 14.9593 -4.09316 0.380991 19.1901 -112.003 76.4722 144.302 -112.483 -41.1687 -135.113 100.02 23.686 -124.351 -54.6806 -56.9331 59.5046 8.64825 0.641287 -30.2772 76.1868 -27.8434 42.451 46.172 -13.7365 -43.1336 -105.405 29.5977 -22.1154 8.59061 1.06405 10.4553 -170.722 -33.2033 -33.2235 136.431 40.06 -4.36959 -10.7598 -2.67897 -4.38246 -125.629 -28.1051 9.51557 136.802 9.26206 -2.98475 -10.8613 -3.89367 -9.4552 -2.98923 -6.28713 -5.33399 13.4344 -30.7087 -2.24593 
72.2296 14.3051 87.0973 -39.4934 -26.8083 86.9964 -137.438 11.8098 0.00944769 -30.9997 4.82692 14.9646 -4.21776 0.346935 19.1959 -111.844 76.4065 144.332 -112.465 -41.1982 -135.022 100.019 23.6438 -124.363 -54.6392 -56.9787 59.5433 8.61081 0.65524 -30.2984 76.1585 -27.8192 42.2795 46.1079 -13.6604 -43.0577 -105.364 29.7205 -22.1217 8.593 1.04286 10.665 -170.625 -33.2118 -33.1558 136.344 40.0959 -4.3333 -10.7975 -2.6813 -4.39264 -125.645 -28.1584 9.48778 136.743 9.20759 -2.99136 -10.8088 -3.89732 -9.44678 -3.0292 -6.25386 -5.30732 13.433 -30.7316 -2.2251 
72.2267 14.3076 87.0948 -39.4777 -26.7914 86.9947 -137.551 11.7944 0.0131291 -30.8607 4.80699 15.013 -4.25238 0.354768 19.1812 -111.983 76.4425 144.27 -112.466 -41.2269 -134.977 99.9453 23.6305 -124.326 -54.5539 -57.0017 59.6269 8.57261 0.667031 -30.3076 76.1271 -27.8441 42.2263 46.1474 -13.6055 -43.0608 -105.34 29.6689 -22.1302 8.5072 1.03924 10.5994 -170.639 -33.2158 -33.1297 136.318 40.0638 -4.32352 -10.8022 -2.68327 -4.39278 -125.577 -28.16 9.48388 136.729 9.27196 -2.98623 -10.8527 -3.8949 -9.46489 -3.0495 -6.24183 -5.28974 13.4016 -30.744 -2.20804 
72.2229 14.3005 87.1041 -39.5036 -26.7592 86.9925 -137.686 11.7984 0.0416772 -30.7091 4.83029 14.9948 -4.27307 0.287582 19.2307 -111.788 76.4261 144.041 -112.473 -41.2221 -135.001 99.915 23.6189 -124.345 -54.5374 -57.0442 59.7179 8.59091 0.671735 -30.3231 76.1266 -27.8829 42.3272 46.2716 -13.7401 -43.2125 -105.302 29.8229 -22.1544 8.51501 1.01374 10.6627 -170.728 -33.2012 -33.1901 136.38 40.0833 -4.34922 -10.7826 -2.68488 -4.39458 -125.64 -28.1331 9.44763 136.738 9.25512 -2.98659 -10.8459 -3.89401 -9.46433 -3.07261 -6.28161 -5.29357 13.3725 -30.7395 -2.1959 
72.2358 14.3042 87.1085 -39.5015 -26.7625 86.9863 -137.713 11.7921 0.103676 -30.6574 4.85641 14.8804 -4.22756 0.285547 19.2944 -111.793 76.3491 143.968 -112.47 -41.1869 -135.052 100.071 23.5504 -124.438 -55.0613 -56.9247 59.2556 8.53256 0.678417 -30.1195 76.1675 -27.8605 42.423 46.1728 -13.8651 -43.2542 -105.293 29.9451 -22.1117 8.62119 0.999452 10.7424 -170.67 -33.2263 -33.2346 136.351 40.1744 -4.34601 -10.7634 -2.68608 -4.41628 -125.704 -28.1389 9.47935 136.772 9.24777 -2.98587 -10.7443 -3.89342 -9.44894 -3.07876 -6.26145 -5.29588 13.4111 -30.7493 -2.19168 
72.2461 14.3065 87.0997 -39.5242 -26.7743 86.9736 -137.689 11.8077 0.124961 -30.6921 4.89221 14.8085 -4.04591 0.287208 19.4129 -111.988 76.4986 143.768 -112.48 -41.1621 -135.118 100.179 23.5861 -124.455 -55.0244 -56.9346 59.2231 8.52539 0.680412 -30.1328 76.2374 -27.7544 42.407 45.9599 -13.8051 -43.102 -105.326 29.8114 -22.052 8.61735 1.01438 10.6872 -170.614 -33.2008 -33.177 136.294 40.1481 -4.32129 -10.7776 -2.68704 -4.41134 -125.727 -28.0727 9.46999 136.789 9.44002 -2.96794 -10.6376 -3.89283 -9.44368 -3.09412 -6.24301 -5.29982 13.4782 -30.7745 -2.19698 
72.2407 14.3108 87.0846 -39.5247 -26.8135 86.9375 -137.603 11.7925 0.046502 -30.7557 4.87999 14.8613 -3.97151 0.224342 19.4334 -111.814 76.5544 143.45 -112.485 -41.1822 -135.096 100.129 23.6566 -124.341 -54.5265 -57.0461 59.6024 8.59895 0.671852 -30.3211 76.2495 -27.7225 42.3685 45.9522 -13.6665 -43.0522 -105.32 29.6457 -22.0624 8.52152 1.02748 10.5821 -170.589 -33.1857 -33.149 136.268 40.0827 -4.30774 -10.8034 -2.68773 -4.39968 -125.726 -28.1198 9.4173 136.712 9.33795 -2.97779 -10.6399 -3.89242 -9.43309 -3.08391 -6.22092 -5.23644 13.4862 -30.8132 -2.1882 
72.2374 14.3088 87.0823 -39.5102 -26.8132 86.9331 -137.555 11.7746 0.00260407 -30.8014 4.8541 14.9057 -4.03097 0.232604 19.3333 -111.744 76.3532 143.418 -112.48 -41.2139 -135.032 100.026 23.6136 -124.219 -54.5899 -57.007 59.5623 8.60307 0.660434 -30.296 76.0768 -27.8824 42.1381 46.3766 -13.4968 -42.8187 -105.289 29.9333 -22.2474 8.56521 1.03058 10.7464 -170.619 -33.2041 -33.1795 136.27 40.0863 -4.3032 -10.7814 -2.68809 -4.39754 -125.68 -28.1679 9.42049 136.663 9.19702 -2.99207 -10.771 -3.89194 -9.43953 -3.08912 -6.21618 -5.20279 13.4317 -30.8349 -2.15204 
